<svg width="24" height="24" viewBox="0 0 24 24" fill="none" xmlns="http://www.w3.org/2000/svg">
<g clip-path="url(#clip0_131_65)">
<rect width="24" height="24" rx="2" fill="url(#paint0_linear_131_65)"/>
<path d="M10 10.7L12.5385 14L26 -1.5" stroke="white" stroke-width="2" stroke-linecap="round" stroke-linejoin="round"/>
<path d="M20 12.5V18.3333C20 18.7754 19.8244 19.1993 19.5118 19.5118C19.1993 19.8244 18.7754 20 18.3333 20H6.66667C6.22464 20 5.80072 19.8244 5.48816 19.5118C5.17559 19.1993 5 18.7754 5 18.3333V6.66667C5 6.22464 5.17559 5.80072 5.48816 5.48816C5.80072 5.17559 6.22464 5 6.66667 5H15.8333" stroke="white" stroke-width="2" stroke-linecap="round" stroke-linejoin="round"/>
</g>
<defs>
<linearGradient id="paint0_linear_131_65" x1="23.5" y1="24.5" x2="-1" y2="0" gradientUnits="userSpaceOnUse">
<stop stop-color="#7FCD2B"/>
<stop offset="1" stop-color="#0C0FCB"/>
</linearGradient>
<clipPath id="clip0_131_65">
<rect width="24" height="24" rx="2" fill="white"/>
</clipPath>
</defs>
</svg>
